<?xml version="1.0" encoding="UTF-8"?>
<svg width="106" height="35" fill="none" viewBox="0 0 106 35" xmlns="http://www.w3.org/2000/svg">
 <path d="m13.5 34c10.4 0 17.65-6.6 17.65-16.7 0-10-7.25-16.65-17.7-16.65h-13.15v33.35h13.2zm-0.05-6.25h-6.05v-20.85h6.1c6.8 0 10.4 4.55 10.4 10.4 0 5.7-3.85 10.45-10.45 10.45zm32.789 6.85c8 0 12.8-5.85 12.8-12.7s-4.8-12.65-12.8-12.65c-7.95 0-12.75 5.8-12.75 12.65s4.8 12.7 12.75 12.7zm0-5.65c-3.95 0-6.15-3.25-6.15-7.05 0-3.75 2.2-7 6.15-7 4 0 6.2 3.25 6.2 7 0 3.8-2.2 7.05-6.2 7.05zm27.81 5.65c4.95 0 7.95-2.2 9.55-4.4l-4.15-3.9c-1.15 1.65-2.9 2.65-5.1 2.65-3.85 0-6.55-2.85-6.55-7.05s2.7-7 6.55-7c2.2 0 3.95 0.9 5.1 2.6l4.15-3.9c-1.6-2.2-4.6-4.35-9.55-4.35-7.4 0-12.8 5.25-12.8 12.65 0 7.45 5.4 12.7 12.8 12.7zm21.401 0c6.7004 0 10.5-3.25 10.5-7.7 0-9.75-14.35-6.75-14.35-10.3 0-1.35 1.5-2.35 3.8-2.35 2.95 0 5.7004 1.3 7.1504 2.8l2.55-4.5c-2.4-1.9-5.6504-3.3-9.7004-3.3-6.4 0-9.9 3.55-9.9 7.6 0 9.5 14.3 6.25 14.3 10.2 0 1.5-1.3 2.55-4.05 2.55-3 0-6.55-1.65-8.35-3.35l-2.75 4.6c2.55 2.35 6.6 3.75 10.8 3.75z" fill="#9AA1B1"/>
</svg>
